<svg width="111" height="42" viewBox="0 0 111 42" fill="none" xmlns="http://www.w3.org/2000/svg">
<g clip-path="url(#clip0_1_59)">
<path fill-rule="evenodd" clip-rule="evenodd" d="M61.8093 6.30269L61.8143 10.807L66.5873 10.802C66.9329 21.048 66.4233 31.8095 66.7538 41.5022L78.5652 41.5928C85.9341 41.5928 88.5401 37.9813 88.5401 30.7859L88.5376 11.4207C88.5376 -0.447486 80.147 1.00868 70.051 1.09168L68.9082 1.10928C67.3391 4.45922 66.7286 6.27754 61.8093 6.30269V6.30269ZM75.3134 35.7631C79.2565 36.1051 82.0516 36.2484 82.203 32.0585L82.208 10.9101C82.1021 6.39575 79.5314 6.59192 75.3387 6.93144L75.3134 35.7631V35.7631Z" fill="white"/>
<path fill-rule="evenodd" clip-rule="evenodd" d="M31.799 0.948133C21.5845 2.58035 23.7843 12.1523 23.7843 22.9893C23.7843 30.4362 21.7611 43.3857 35.1845 41.8591C45.341 40.7023 43.0655 28.5675 43.0655 19.7199C43.0655 15.5123 43.5826 9.03376 42.0286 5.5958C40.5377 2.29616 36.5468 0.188612 31.799 0.948133V0.948133ZM30.1315 11.9235V30.2827C30.1315 33.2328 30.1542 36.115 33.1663 36.2357C37.1573 36.3966 36.7561 32.4129 36.7561 29.0253L36.7587 11.169C36.7587 8.45532 36.0372 6.43831 33.1562 6.58921C30.2702 6.73759 30.1315 9.22993 30.1315 11.9235V11.9235Z" fill="white"/>
<path fill-rule="evenodd" clip-rule="evenodd" d="M20.3029 26.2363L14.2509 26.2036C14.1979 28.1603 14.4603 31.9956 14.049 33.6329C13.542 35.6423 11.2362 36.8344 9.10198 35.6524C7.2503 34.6288 7.51518 31.9051 7.51518 29.5284C7.51771 25.2278 7.00812 8.87297 8.18371 7.14519C9.32902 5.46519 12.3992 5.42746 13.5218 7.10243C14.5738 8.67178 14.2483 12.15 14.2231 14.2575L20.3079 14.3078C20.2726 10.0148 20.318 5.59597 18.0274 2.85968C15.096 -0.64116 2.89102 -2.75625 1.24368 7.95501C0.713911 11.4005 1.09484 17.9646 1.09484 21.732C1.09484 30.4313 -0.519702 40.2824 8.50662 41.7512C13.098 42.4981 16.9325 40.969 18.5572 38.366C20.7418 34.8677 20.3306 30.7557 20.3029 26.2363Z" fill="white"/>
<path fill-rule="evenodd" clip-rule="evenodd" d="M92.6068 41.5879L110.009 41.5904L110.026 35.9016L99.0473 35.811L99.0221 23.9706L107.685 23.8926L107.766 18.2641L99.0675 18.1585L99.0221 6.92409L109.991 6.86876L110.039 1.15474L92.632 1.08936L92.6068 41.5879Z" fill="white"/>
<path fill-rule="evenodd" clip-rule="evenodd" d="M47.0993 41.4921L53.2598 41.6179L53.3809 35.3682L47.1523 35.3254L47.0993 41.4921Z" fill="#6C6C6A"/>
<path fill-rule="evenodd" clip-rule="evenodd" d="M47.3717 41.4148L53.2068 41.3922L53.1563 35.5599L47.3465 35.5675L47.3717 41.4148Z" fill="#020202"/>
</g>
<defs>
<clipPath id="clip0_1_59">
<rect width="111" height="42" fill="white"/>
</clipPath>
</defs>
</svg>
