<svg width="40" height="40" viewBox="0 0 40 40" fill="none" xmlns="http://www.w3.org/2000/svg">
<path d="M25 6.6665H15C10.3984 6.6665 6.66669 10.3982 6.66669 14.9998V24.9998C6.66669 29.6015 10.3984 33.3332 15 33.3332H25C29.6017 33.3332 33.3333 29.6015 33.3333 24.9998V14.9998C33.3333 10.3982 29.6017 6.6665 25 6.6665ZM30.8333 24.9998C30.8333 28.2165 28.2167 30.8332 25 30.8332H15C11.7834 30.8332 9.16669 28.2165 9.16669 24.9998V14.9998C9.16669 11.7832 11.7834 9.1665 15 9.1665H25C28.2167 9.1665 30.8333 11.7832 30.8333 14.9998V24.9998Z" fill="#FCFCFC"/>
<path d="M20 13.333C16.3183 13.333 13.3333 16.318 13.3333 19.9997C13.3333 23.6813 16.3183 26.6663 20 26.6663C23.6816 26.6663 26.6666 23.6813 26.6666 19.9997C26.6666 16.318 23.6816 13.333 20 13.333ZM20 24.1663C17.7033 24.1663 15.8333 22.2963 15.8333 19.9997C15.8333 17.7013 17.7033 15.833 20 15.833C22.2966 15.833 24.1666 17.7013 24.1666 19.9997C24.1666 22.2963 22.2966 24.1663 20 24.1663Z" fill="#FCFCFC"/>
<path d="M27.1667 13.7217C27.6573 13.7217 28.0551 13.324 28.0551 12.8334C28.0551 12.3428 27.6573 11.9451 27.1667 11.9451C26.6761 11.9451 26.2784 12.3428 26.2784 12.8334C26.2784 13.324 26.6761 13.7217 27.1667 13.7217Z" fill="#FCFCFC"/>
</svg>
